# xmcd
#
# Track frame offsets:
#	150
#	11883
#	22981
#	33748
#	50895
#	62958
#	89157
#	100832
#	127469
#	140826
#	151454
#
# Disc length: 2231 seconds
#
# Revision: 1
# Processed by: cddbd v1.5.2PL0 Copyright (c) Steve Scherf et al.
# Submitted via: audiograbber 1.83.01
#
DISCID=ad08b50b
DTITLE=Jussi Syren and The Groundbreakers - from Vyborg to L.A.
DYEAR=2009
DGENRE=Bluegrass
TTITLE0=Call of the Big Wind
TTITLE1=Farmer's Son
TTITLE2=Cadillac Lane
TTITLE3=Eagle And the Plowman
TTITLE4=It's Draggin' Me Down
TTITLE5=Mr. Bojangles
TTITLE6=From Vyborg to L.A.
TTITLE7=Matty Groves
TTITLE8=God's Own Singer
TTITLE9=Rumble on the Blue Ridge
TTITLE10=The Ghost of Laura Wilkins
EXTD=
EXTT0=Jussi Syren
EXTT1=Thomas Blom
EXTT2=Red Simpson - Buck Owens
EXTT3=A.P. Sarjanto - Jussi Syren
EXTT4=Jussi Syren - Mikki Niinivaara
EXTT5=Jerry Jeff Walker
EXTT6=Jussi Syren
EXTT7=Trad.
EXTT8=Bernie Leadon
EXTT9=Jussi Syren, instrumental
EXTT10=J. Karjalainen - Jussi Syren
PLAYORDER=
